HIERARCHY
ROOT root
{
	OFFSET 0.000000 0.000000 0.000000
	CHANNELS 6 Xposition Yposition Zposition Zrotation Yrotation Xrotation
	JOINT lhip
	{
		OFFSET 0.058581 -0.082280 -0.017664
		CHANNELS 3 Zrotation Yrotation Xrotation
		JOINT lknee
		{
			OFFSET 0.043451 -0.386469 0.008037
			CHANNELS 3 Zrotation Yrotation Xrotation
			JOINT lankle
			{
				OFFSET -0.014790 -0.426874 -0.037428
				CHANNELS 3 Zrotation Yrotation Xrotation
				JOINT ltoe
				{
					OFFSET 0.041054 -0.060286 0.122042
					CHANNELS 3 Zrotation Yrotation Xrotation
					End Site
					{
						OFFSET 0.000000 0.000000 0.000000
					}
				}
			}
		}
	}
	JOINT rhip
	{
		OFFSET -0.060310 -0.090513 -0.013543
		CHANNELS 3 Zrotation Yrotation Xrotation
		JOINT rknee
		{
			OFFSET -0.043257 -0.383688 -0.004843
			CHANNELS 3 Zrotation Yrotation Xrotation
			JOINT rankle
			{
				OFFSET 0.019056 -0.420046 -0.034562
				CHANNELS 3 Zrotation Yrotation Xrotation
				JOINT rtoe
				{
					OFFSET -0.034840 -0.062106 0.130323
					CHANNELS 3 Zrotation Yrotation Xrotation
					End Site
					{
						OFFSET 0.000000 0.000000 0.000000
					}
				}
			}
		}
	}
	JOINT lowerback
	{
		OFFSET 0.004439 0.124404 -0.038385
		CHANNELS 3 Zrotation Yrotation Xrotation
		JOINT upperback
		{
			OFFSET 0.004488 0.137956 0.026820
			CHANNELS 3 Zrotation Yrotation Xrotation
			JOINT chest
			{
				OFFSET -0.002265 0.056032 0.002855
				CHANNELS 3 Zrotation Yrotation Xrotation
				JOINT lowerneck
				{
					OFFSET -0.013390 0.211636 -0.033468
					CHANNELS 3 Zrotation Yrotation Xrotation
					JOINT upperneck
					{
						OFFSET 0.010113 0.088937 0.050410
						CHANNELS 3 Zrotation Yrotation Xrotation
						End Site
						{
							OFFSET 0.000000 0.000000 0.000000
						}
					}
				}
				JOINT lclavicle
				{
					OFFSET 0.071702 0.114000 -0.018898
					CHANNELS 3 Zrotation Yrotation Xrotation
					JOINT lshoulder
					{
						OFFSET 0.122921 0.045205 -0.019046
						CHANNELS 3 Zrotation Yrotation Xrotation
						JOINT lelbow
						{
							OFFSET 0.255332 -0.015649 -0.022946
							CHANNELS 3 Zrotation Yrotation Xrotation
							JOINT lwrist
							{
								OFFSET 0.265709 0.012698 -0.007375
								CHANNELS 3 Zrotation Yrotation Xrotation
								End Site
								{
									OFFSET 0.000000 0.000000 0.000000
								}
							}
						}
					}
				}
				JOINT rclavicle
				{
					OFFSET -0.082954 0.112472 -0.023707
					CHANNELS 3 Zrotation Yrotation Xrotation
					JOINT rshoulder
					{
						OFFSET -0.113228 0.046853 -0.008472
						CHANNELS 3 Zrotation Yrotation Xrotation
						JOINT relbow
						{
							OFFSET -0.260127 -0.014369 -0.031269
							CHANNELS 3 Zrotation Yrotation Xrotation
							JOINT rwrist
							{
								OFFSET -0.269108 0.006794 -0.006027
								CHANNELS 3 Zrotation Yrotation Xrotation
								End Site
								{
									OFFSET 0.000000 0.000000 0.000000
								}
							}
						}
					}
				}
			}
		}
	}
}
MOTION
Frames: 12
Frame Time: 0.033333
1.256170 0.712221 0.988871 -96.363296 -0.162913 82.622401 -2.319124 0.576249 5.084601 0.559907 -6.968036 4.499426 3.083114 12.441974 -12.979785 0.000000 -0.000000 0.000000 2.044971 -1.043572 3.028509 -2.954701 2.118894 8.161970 1.424341 -8.988927 -11.858927 0.000000 -0.000000 0.000000 -1.437090 2.427521 7.524211 -0.222663 -3.044616 6.771188 -1.177592 0.093109 -3.468430 1.750447 0.507359 -6.620255 5.685706 0.555037 1.031445 -29.393693 -8.104557 0.842848 -49.657711 -6.368717 14.718204 -0.592807 -19.231372 4.422913 -5.627516 -1.733885 4.315718 27.385955 10.356378 0.728313 56.464848 3.655277 20.105913 -2.390332 26.474968 8.443850 6.870834 2.570974 6.660942 
1.257784 0.711253 0.988997 -95.993828 0.159688 83.184640 -2.127913 -0.189724 3.848418 0.577570 -6.548602 5.401203 3.100235 12.406759 -13.121338 0.000000 -0.000000 0.000000 2.341951 -0.596705 2.254322 -2.881847 1.369811 8.330395 1.626592 -9.021811 -11.544369 0.000000 -0.000000 0.000000 -1.198347 2.456775 7.157054 0.021422 -3.337503 6.757154 -1.066431 -0.166408 -3.408852 1.789910 1.222111 -6.478037 5.484101 0.122351 0.202255 -28.532808 -7.670579 0.740765 -50.963075 -6.309567 15.118228 -1.051320 -20.707114 5.179986 -7.166890 -4.426066 5.640058 27.395691 10.211259 0.948096 56.935583 3.394686 19.701341 -3.114488 27.231800 7.492321 4.888092 3.835591 7.743562 
1.256278 0.710969 0.989547 -96.513044 0.010109 83.156152 -2.332876 0.122073 4.346485 0.707571 -6.520503 4.779840 3.102984 12.568356 -12.848927 0.000000 -0.000000 0.000000 2.162123 -0.412702 2.365775 -2.823562 1.600288 8.307652 1.697252 -8.891910 -11.592301 0.000000 -0.000000 0.000000 -1.334272 2.511554 6.593911 -0.090865 -3.013657 7.319774 -1.066365 -0.089756 -3.479261 1.995001 1.418183 -6.393179 5.456573 -0.029128 0.152457 -28.362736 -7.635849 0.814461 -51.212246 -6.114081 15.140297 -1.387518 -20.780967 5.438827 -7.702592 -4.157526 5.748026 27.132546 10.176057 1.208176 57.169026 3.419901 19.760651 -3.086750 27.479727 7.796529 5.008666 3.505853 7.620202 
1.256632 0.710942 0.989798 -96.694576 0.084175 83.220276 -2.208620 0.110461 4.225295 0.677845 -6.283688 4.870697 3.054526 12.479736 -12.931163 0.000000 -0.000000 0.000000 2.242019 -0.455749 2.182796 -2.821567 1.684927 8.428118 1.791407 -8.782538 -11.526509 0.000000 -0.000000 0.000000 -1.393923 2.626698 6.723421 -0.039180 -3.026410 6.946501 -0.934920 -0.135194 -3.452014 2.216584 1.498147 -6.435837 5.489890 0.159421 0.448144 -28.214870 -7.697565 0.970873 -51.492170 -5.933107 15.443673 -1.713545 -20.820075 6.207928 -7.203071 -4.068438 5.678474 26.860214 10.144514 1.359952 57.182011 3.714664 19.644847 -3.095350 27.249589 7.807989 4.862495 3.429694 7.431871 
1.258544 0.710889 0.989816 -96.297290 0.204070 83.309489 -2.125475 -0.346431 3.583302 0.603823 -6.236822 5.598683 3.063171 12.472635 -13.011076 0.000000 -0.000000 0.000000 2.378498 -0.319017 1.848017 -2.806551 1.382738 8.701641 1.716332 -8.957772 -11.631654 0.000000 -0.000000 0.000000 -1.490891 2.551236 7.159196 0.122955 -3.307387 6.340575 -0.855526 -0.193209 -3.271297 2.262149 1.575161 -6.541159 5.745455 0.199954 0.719120 -28.132742 -7.825620 0.956166 -51.607766 -6.110065 15.424396 -1.890056 -20.580249 6.474831 -7.703480 -4.653871 6.060297 26.882046 10.373019 1.336931 56.855170 3.510317 19.844684 -3.179416 26.618730 9.049470 5.005703 4.525956 9.205647 
1.258823 0.711050 0.990096 -96.299610 0.216396 83.241312 -2.070539 -0.378251 3.540042 0.551448 -6.154217 5.771351 3.111487 12.533613 -13.024910 0.000000 -0.000000 0.000000 2.415500 -0.163248 1.853691 -2.821290 1.322904 8.796236 1.656432 -9.066958 -11.621859 0.000000 -0.000000 0.000000 -1.625466 2.624091 7.242560 0.212858 -3.328490 6.262188 -0.786877 -0.234244 -3.335892 2.427689 1.551624 -6.335796 5.759409 0.222318 1.023340 -28.134164 -7.873291 0.972110 -51.462384 -6.236335 15.591304 -2.383073 -20.536165 6.838942 -7.665285 -4.645411 6.322618 26.961091 10.374319 1.329805 56.432582 3.596995 19.809213 -3.157398 26.306457 9.168790 4.988285 4.570848 9.662147 
1.258882 0.711125 0.990433 -96.257088 0.258289 83.122853 -1.997683 -0.362089 3.592986 0.495291 -6.157760 5.882795 3.013041 12.535776 -13.018834 0.000000 -0.000000 0.000000 2.453324 -0.148271 1.960348 -2.801270 1.323484 8.877850 1.664861 -9.145403 -11.642061 0.000000 -0.000000 0.000000 -1.723127 2.674060 7.180622 0.286259 -3.345726 6.434204 -0.715541 -0.267057 -3.359619 2.616650 1.516072 -6.398918 5.736390 0.106241 1.445416 -28.224364 -8.075401 1.145197 -51.265219 -6.354112 15.746669 -2.521508 -20.773792 7.248709 -7.254523 -4.466440 6.363121 27.052782 10.418611 1.438419 55.995302 3.762152 19.713006 -3.351353 26.330072 8.800447 4.699547 4.127129 9.292636 
1.259073 0.711274 0.990581 -96.181874 0.289581 83.089975 -1.934102 -0.357168 3.642073 0.475890 -6.083624 5.835093 2.967704 12.493341 -13.017244 0.000000 -0.000000 0.000000 2.484325 -0.186110 1.989827 -2.801715 1.271792 8.884064 1.664926 -9.138821 -11.656702 0.000000 -0.000000 0.000000 -1.745864 2.670225 7.278354 0.291583 -3.354714 6.208645 -0.674709 -0.264456 -3.381686 2.699691 1.393406 -6.337788 5.718951 0.069539 1.994067 -28.322976 -8.126956 1.254414 -51.096027 -6.411195 15.825665 -2.548058 -20.993128 7.515025 -7.012714 -4.617831 6.370057 27.122652 10.448460 1.442177 55.713510 3.799738 19.618800 -3.464505 25.973285 8.665087 4.665493 4.049814 9.265959 
1.259481 0.711450 0.990749 -96.314960 0.212758 83.091880 -1.989698 -0.332712 3.607485 0.436892 -6.135547 5.846566 3.057968 12.510835 -12.964010 0.000000 -0.000000 0.000000 2.376488 -0.147806 1.855608 -2.734649 1.358200 9.076245 1.611332 -9.146953 -11.716447 0.000000 -0.000000 0.000000 -1.778396 2.715051 7.313033 0.255272 -3.250646 6.159757 -0.717590 -0.274276 -3.444599 2.661116 1.258425 -6.176905 5.763704 0.085514 2.163919 -28.432503 -8.050218 1.178791 -50.857294 -6.510210 15.803527 -2.541283 -21.278012 7.368736 -7.051579 -4.567347 6.326963 27.167431 10.403088 1.295064 55.447060 3.736714 19.696905 -3.486105 25.942146 8.642418 4.638863 4.147661 9.406651 
1.259412 0.711675 0.990931 -96.227424 0.229205 83.027521 -1.916162 -0.258015 3.707251 0.397436 -6.111182 5.792868 2.975369 12.452971 -13.004764 0.000000 -0.000000 0.000000 2.377998 -0.228357 1.870759 -2.668886 1.391773 9.212153 1.607127 -9.195689 -11.726458 0.000000 -0.000000 0.000000 -1.739636 2.720186 7.216662 0.274535 -3.246236 6.368959 -0.780843 -0.251963 -3.498597 2.694242 1.117743 -6.063011 5.680306 -0.134780 2.027056 -28.478290 -8.010978 0.986903 -50.627418 -6.729759 15.830510 -2.625804 -21.517568 7.100708 -7.006673 -4.242839 6.055733 27.237021 10.168838 1.001894 55.232822 3.926735 19.586810 -3.546115 26.061405 7.950555 4.791619 3.369188 8.703215 
1.260038 0.711716 0.990769 -96.303302 0.180212 83.041825 -1.961908 -0.262885 3.568931 0.373510 -6.033547 5.963454 2.981626 12.502005 -12.997750 0.000000 -0.000000 0.000000 2.354468 -0.096803 1.652886 -2.676120 1.346007 9.502734 1.542920 -9.139352 -11.733748 0.000000 -0.000000 0.000000 -1.720616 2.779436 7.276514 0.224079 -3.179864 6.445955 -0.824018 -0.254594 -3.562004 2.656920 1.176930 -6.173975 5.728371 -0.190578 1.939000 -28.410869 -8.111001 0.906527 -50.538915 -6.915977 15.746475 -2.504302 -21.604078 6.865019 -7.138091 -4.281142 6.232344 27.304291 10.346639 1.023248 55.139113 3.950550 19.517144 -3.758548 26.050747 7.632913 4.882070 3.607220 8.827684 
1.260192 0.711801 0.990665 -96.255686 0.169517 83.017426 -1.954943 -0.253689 3.476548 0.324701 -6.049187 6.137356 2.976247 12.464589 -13.078789 0.000000 -0.000000 0.000000 2.376144 -0.086623 1.634850 -2.701794 1.300937 9.582517 1.529637 -9.169907 -11.835345 0.000000 -0.000000 0.000000 -1.685336 2.791323 7.415051 0.209963 -3.165418 6.391290 -0.819043 -0.306073 -3.634803 2.605874 1.130732 -6.077471 5.649259 -0.160507 1.720913 -28.387352 -8.092575 0.798392 -50.510873 -6.931414 15.715297 -2.340514 -21.816215 6.616084 -6.875981 -4.325944 6.227722 27.283723 10.314377 0.964690 55.191445 3.891716 19.482702 -3.807897 26.081908 7.665422 4.763625 3.644667 9.043194 
